<svg id="insta" xmlns="http://www.w3.org/2000/svg" width="36" height="36" viewBox="0 0 36 36">
  <path id="Path_690" data-name="Path 690" d="M18,36A18,18,0,1,1,36,18,18,18,0,0,1,18,36Zm5.884-22.8a1.08,1.08,0,1,0-1.08,1.08A1.08,1.08,0,0,0,23.884,13.2ZM18,21a3,3,0,1,1,3-3A3.01,3.01,0,0,1,18,21Zm0-7.628A4.624,4.624,0,1,0,22.624,18,4.624,4.624,0,0,0,18,13.376Zm0-2.756c2.407,0,2.689.011,3.634.056a4.875,4.875,0,0,1,1.676.3,3,3,0,0,1,1.71,1.71,4.875,4.875,0,0,1,.3,1.676c.045.945.056,1.226.056,3.634s-.011,2.689-.056,3.634a4.875,4.875,0,0,1-.3,1.676,3,3,0,0,1-1.71,1.71,4.875,4.875,0,0,1-1.676.3c-.945.045-1.226.056-3.634.056s-2.689-.011-3.634-.056a4.875,4.875,0,0,1-1.676-.3,3,3,0,0,1-1.71-1.71,4.875,4.875,0,0,1-.3-1.676c-.045-.945-.056-1.226-.056-3.634s.011-2.689.056-3.634a4.875,4.875,0,0,1,.3-1.676,3,3,0,0,1,1.71-1.71,4.875,4.875,0,0,1,1.676-.3C15.311,10.631,15.593,10.62,18,10.62ZM18,9c-2.441,0-2.756.011-3.712.056a6.582,6.582,0,0,0-2.182.416,4.555,4.555,0,0,0-2.633,2.633,6.582,6.582,0,0,0-.416,2.182C9.011,15.244,9,15.559,9,18s.011,2.756.056,3.713a6.582,6.582,0,0,0,.416,2.182,4.555,4.555,0,0,0,2.633,2.633,6.582,6.582,0,0,0,2.182.416c.956.045,1.271.056,3.712.056s2.756-.011,3.713-.056a6.582,6.582,0,0,0,2.182-.416,4.555,4.555,0,0,0,2.633-2.633,6.582,6.582,0,0,0,.416-2.182C26.989,20.756,27,20.441,27,18s-.011-2.756-.056-3.712a6.582,6.582,0,0,0-.416-2.182,4.555,4.555,0,0,0-2.633-2.633,6.582,6.582,0,0,0-2.182-.416C20.756,9.011,20.441,9,18,9Z" fill="#fff" fill-rule="evenodd"/>
</svg>
