<svg id="linkedin" xmlns="http://www.w3.org/2000/svg" width="36" height="36" viewBox="0 0 36 36">
  <path id="Path_691" data-name="Path 691" d="M18,36A18,18,0,1,0,0,18,18,18,0,0,0,18,36ZM9.158,24.9H12.9V12.915H9.158ZM11,11.3a2.137,2.137,0,0,0,1.541-.653,2.093,2.093,0,0,0,0-3.015A2.093,2.093,0,0,0,11,6.975a1.969,1.969,0,0,0-1.508.653,2.146,2.146,0,0,0,0,3.015A2.008,2.008,0,0,0,11,11.3ZM26.775,24.9V18.337a8.1,8.1,0,0,0-.788-4.084,4.007,4.007,0,0,0-3.634-1.62,4.279,4.279,0,0,0-2.295.619,3.185,3.185,0,0,0-1.226,1.282h-.056v-1.62H15.2V24.9h3.69v-5.94a4.612,4.612,0,0,1,.394-2.126,1.976,1.976,0,0,1,1.845-.945A1.6,1.6,0,0,1,22.8,16.943a5.833,5.833,0,0,1,.281,2.126V24.9Z" fill="#fff" fill-rule="evenodd"/>
</svg>
