<svg id="icon-youtube-white" xmlns="http://www.w3.org/2000/svg" width="36" height="36" viewBox="0 0 36 36">
  <path id="Path_692" data-name="Path 692" d="M18,0A18,18,0,1,1,0,18,18,18,0,0,1,18,0Zm.064,10.913h-.129a59.194,59.194,0,0,0-7.859.417,2.589,2.589,0,0,0-1.785,1.8,26.12,26.12,0,0,0-.417,4.836v.067a26.012,26.012,0,0,0,.417,4.836,2.537,2.537,0,0,0,1.785,1.784c1.521.412,7.3.432,7.877.434h.111a59.18,59.18,0,0,0,7.858-.417,2.537,2.537,0,0,0,1.785-1.784,26.219,26.219,0,0,0,.417-4.845h0v-.028a25.187,25.187,0,0,0-.417-4.882,2.537,2.537,0,0,0-1.785-1.784C24.432,10.938,18.734,10.914,18.064,10.913Zm-2.089,4.05L21.15,18l-5.175,3.038Z" fill="#fff" fill-rule="evenodd"/>
</svg>
